<?xml version="1.0" encoding="utf-8"?>
<!-- Generator: Adobe Illustrator 22.1.0, SVG Export Plug-In . SVG Version: 6.00 Build 0)  -->
<svg version="1.1" id="图层_1" xmlns="http://www.w3.org/2000/svg" xmlns:xlink="http://www.w3.org/1999/xlink" x="0px" y="0px"
	 viewBox="0 0 200 200" style="enable-background:new 0 0 200 200;" xml:space="preserve">
<style type="text/css">
	.st0{fill:#FFFFFF;}
	.st1{fill:#FEE60F;}
	.st2{fill:#3A4453;}
	.st3{fill:#606060;}
</style>
<path class="st0" d="M0,0h200v200H0V0z"/>
<path class="st1" d="M37.5,103.8c0-9.4,4.4-18.3,12-24l45-33.8c10.7-8,25.3-8,36,0l45,33.8c7.6,5.7,12,14.6,12,24v48.8
	c0,16.6-13.4,30-30,30h-90c-16.6,0-30-13.4-30-30V103.8z"/>
<path class="st2" d="M195,91.3V145c0,24.9-20.1,45-45,45H50c-24.9,0-45-20.1-45-45V91.3c0-14.2,6.7-27.5,18-36l50-37.5
	c16-12,38-12,54,0l50,37.5C188.3,63.7,195,77.1,195,91.3z M29,63.3c-8.8,6.6-14,17-14,28V145c0,19.3,15.7,35,35,35h100
	c19.3,0,35-15.7,35-35V91.3c0-11-5.2-21.4-14-28l-50-37.5c-12.4-9.3-29.6-9.3-42,0C79,25.8,29,63.3,29,63.3z"/>
<path class="st3" d="M62.5,130c0-20.7,16.8-37.5,37.5-37.5s37.5,16.8,37.5,37.5v30c0,5.5-4.5,10-10,10c-5.5,0-10-4.5-10-10v-30
	c0-9.7-7.8-17.5-17.5-17.5s-17.5,7.8-17.5,17.5v30c0,5.5-4.5,10-10,10c-5.5,0-10-4.5-10-10C62.5,160,62.5,130,62.5,130z"/>
</svg>
