<?xml version="1.0" encoding="utf-8"?>
<!-- Generator: Adobe Illustrator 22.1.0, SVG Export Plug-In . SVG Version: 6.00 Build 0)  -->
<svg version="1.1" id="图层_1" xmlns="http://www.w3.org/2000/svg" xmlns:xlink="http://www.w3.org/1999/xlink" x="0px" y="0px"
	 viewBox="0 0 200 200" style="enable-background:new 0 0 200 200;" xml:space="preserve">
<style type="text/css">
	.st0{fill:#FFFFFF;}
	.st1{fill:#3A4453;}
	.st2{fill:#FEE60F;}
	.st3{fill:#606060;}
</style>
<path class="st0" d="M0,0h200v200H0V0z"/>
<path class="st1" d="M100,15c-46.9,0-85,38.1-85,85s38.1,85,85,85s85-38.1,85-85S146.9,15,100,15z M5,100C5,47.5,47.5,5,100,5
	s95,42.5,95,95s-42.5,95-95,95S5,152.5,5,100z"/>
<path class="st2" d="M30,106.3c0,42.1,34.1,76.3,76.3,76.3s76.3-34.1,76.3-76.3c0-42.1-34.1-76.3-76.2-76.3
	C64.1,30,30,64.1,30,106.3C30,106.2,30,106.2,30,106.3z"/>
<path class="st3" d="M65,70c5.5,0,10,4.5,10,10l0,0v25c0,5.5-4.5,10-10,10c-5.5,0-10-4.5-10-10V80C55,74.5,59.5,70,65,70
	C65,70,65,70,65,70z M147.1,74.9c2.8,3.9,1.9,9.4-2,12.2l-7.5,5.4l7.5,5.4c4,2.8,4.9,8.2,2.2,12.2c-2.8,4-8.2,4.9-12.2,2.2
	c-0.1,0-0.1-0.1-0.2-0.1l-17.5-12.5c-3.9-2.8-4.8-8.3-2-12.2c0.6-0.8,1.2-1.5,2-2l17.5-12.5C138.8,70.1,144.3,71,147.1,74.9
	L147.1,74.9z"/>
</svg>
