<?xml version="1.0" encoding="utf-8"?>
<!-- Generator: Adobe Illustrator 22.1.0, SVG Export Plug-In . SVG Version: 6.00 Build 0)  -->
<svg version="1.1" id="图层_1" xmlns="http://www.w3.org/2000/svg" xmlns:xlink="http://www.w3.org/1999/xlink" x="0px" y="0px"
	 viewBox="0 0 200 200" style="enable-background:new 0 0 200 200;" xml:space="preserve">
<style type="text/css">
	.st0{fill:#606060;}
</style>
<path class="st0" d="M188.8,180.6l-45-44.4c11.9-13.1,18.8-30.6,18.8-50c0-42.5-34.4-76.3-76.3-76.3C43.8,10,10,44.4,10,86.2
	c0,42.5,34.4,76.3,76.3,76.3c19.4,0,36.9-6.9,50-18.8l45,44.4c1.9,1.9,5.6,1.9,7.5,0C191.3,185.6,191.3,182.5,188.8,180.6z M20,86.3
	C20,50,49.4,20,86.3,20s66.3,29.4,66.3,66.3c0,17.5-6.9,33.8-18.1,45.6c-0.6,0-0.6,0.6-1.3,0.6c-0.6,0.6-0.6,0.6-0.6,1.3
	c-11.9,11.2-28.1,18.1-45.6,18.1C50,152.5,20,122.5,20,86.3z"/>
</svg>
