<?xml version="1.0" encoding="utf-8"?>
<!-- Generator: Adobe Illustrator 22.1.0, SVG Export Plug-In . SVG Version: 6.00 Build 0)  -->
<svg version="1.1" id="图层_1" xmlns="http://www.w3.org/2000/svg" xmlns:xlink="http://www.w3.org/1999/xlink" x="0px" y="0px"
	 viewBox="0 0 200 200" style="enable-background:new 0 0 200 200;" xml:space="preserve">
<style type="text/css">
	.st0{fill:#FFFFFF;}
	.st1{fill:#FEE60F;}
	.st2{fill:#3A4453;}
	.st3{fill:#606060;}
</style>
<path class="st0" d="M0,0h200v200H0V0z"/>
<path class="st1" d="M60,39.4c-13.8,0-25,11.2-25,25v77.9c0,13.8,11.2,25,25,25h13.5c2.7,0,5.2,1.1,7.1,2.9l8.2,8.2
	c5.9,5.9,15.4,5.9,21.2,0l8.2-8.2c1.9-1.9,4.4-2.9,7.1-2.9H160c13.8,0,25-11.2,25-25V64.4c0-13.8-11.2-25-25-25
	C160,39.4,60,39.4,60,39.4z"/>
<path class="st2" d="M45,22.5c-16.6,0-30,13.4-30,30v75c0,16.6,13.4,30,30,30h17.9c5,0,9.1,2.7,11.7,4.6l0.2,0.1l19.6,13.3
	c3.4,2.3,7.8,2.3,11.2,0l19.6-13.3l0.2-0.1c2.7-1.9,6.7-4.6,11.7-4.6H155c16.6,0,30-13.4,30-30v-75c0-16.6-13.4-30-30-30
	C155,22.5,45,22.5,45,22.5z M5,52.5c0-22.1,17.9-40,40-40h110c22.1,0,40,17.9,40,40v75c0,22.1-17.9,40-40,40h-17.9
	c-1.5,0-3.3,0.9-6,2.7c-0.1,0.1-0.2,0.1-0.3,0.2l-19.6,13.3c-6.8,4.6-15.6,4.6-22.4,0l-19.6-13.3c-0.1-0.1-0.2-0.1-0.3-0.2
	c-2.7-1.9-4.5-2.7-6-2.7H45c-22.1,0-40-17.9-40-40V52.5z"/>
<path class="st3" d="M124.2,85.4c11.7,0,11.7-15.6,0-15.6H75.8c-11.7,0-11.7,15.6,0,15.6H124.2z"/>
<path class="st3" d="M122,121.3c14.7,0,14.7-15.6,0-15.6H78c-14.7,0-14.7,15.6,0,15.6H122z"/>
</svg>
