<?xml version="1.0" encoding="utf-8"?>
<!-- Generator: Adobe Illustrator 22.1.0, SVG Export Plug-In . SVG Version: 6.00 Build 0)  -->
<svg version="1.1" id="图层_1" xmlns="http://www.w3.org/2000/svg" xmlns:xlink="http://www.w3.org/1999/xlink" x="0px" y="0px"
	 viewBox="0 0 200 200" style="enable-background:new 0 0 200 200;" xml:space="preserve">
<style type="text/css">
	.st0{fill:#606060;}
</style>
<path class="st0" d="M106.2,28.6c1.1,0,1.7,0.5,1.7,1.6v62.3h61.9c1.1,0,1.7,0.5,1.7,1.6V106c0,1.1-0.6,1.6-1.7,1.6h-61.9v62.3
	c0,1.1-0.5,1.6-1.7,1.6H93.8c-1.1,0-1.7-0.5-1.7-1.6l0-62.3H30.2c-1.1,0-1.7-0.5-1.7-1.6V94c0-1.1,0.6-1.6,1.7-1.6l61.9,0V30.2
	c0-1.1,0.6-1.6,1.7-1.6L106.2,28.6L106.2,28.6z"/>
</svg>
