<?xml version="1.0" encoding="utf-8"?>
<!-- Generator: Adobe Illustrator 22.1.0, SVG Export Plug-In . SVG Version: 6.00 Build 0)  -->
<svg version="1.1" id="图层_1" xmlns="http://www.w3.org/2000/svg" xmlns:xlink="http://www.w3.org/1999/xlink" x="0px" y="0px"
	 viewBox="0 0 200 200" style="enable-background:new 0 0 200 200;" xml:space="preserve">
<style type="text/css">
	.st0{fill:#81D3F8;}
	.st1{fill:#F2B6C1;}
</style>
<path class="st0" d="M126.9,122.3c-8.8-6.9-18.8-10.8-27.4-10.8c-4.3,0-9,2.2-13.2,4.6c-2.7-3.6-6.7-9.2-8.7-12.6
	c-1.8-3.2-4-8.1-5.6-12.5c3.1-1.3,5.9-2.9,7.9-5.1c6.5-7.5,9.2-19.6,7.4-33.3c-2.5-19.7-15.2-35.9-28.9-37c-7.8-0.6-17.1,1.4-23.6,5
	C25.3,26,18.4,35.3,15.1,47.6c-6.3,22.7-0.2,53.4,16.2,82.1c19.8,34.6,50.5,57.8,76.5,57.8c7.1,0,13.7-1.7,19.5-5
	c3.2-1.8,13.9-8.4,16.6-18.2C147.2,153,144.5,136,126.9,122.3z M132.3,161c-1.1,3.9-6.3,8.3-10.9,10.9c-4,2.2-8.5,3.4-13.5,3.4
	c-21.4,0-48.6-21.2-65.9-51.6C27.3,98.1,21.5,70.1,26.8,50.8c2.5-9.2,7.2-15.7,14-19.5c3.9-2.2,9.7-3.6,14.7-3.6c0.7,0,1.3,0,2,0.1
	c5.9,0.5,15.7,10.1,17.8,26.4c1.3,9.9-0.5,19-4.5,23.7c-0.4,0.4-1.9,1.4-6.9,3.1c-6,2-5.7,6.1-5.2,7.8c1.6,6.1,5.3,15.2,8.5,20.8
	c2.3,4.1,6.5,9.8,7.7,11.5c5.2,7.2,6.7,9,10.2,9c1.9,0,3.1-0.7,5.3-2.1c1.8-1.1,7.1-4.3,9.3-4.3c5.8,0,13.2,3.1,19.9,8.3
	C132.2,141.9,134.4,153.5,132.3,161z"/>
<path class="st1" d="M105.6,55.2c-3.4,0-6.1,2.7-6.1,6.1v6c0,3.4,2.7,6.1,6.1,6.1c3.4,0,6.1-2.7,6.1-6.1v-6
	C111.7,57.9,109,55.2,105.6,55.2z"/>
<path class="st1" d="M153.2,55.2c-3.4,0-6.1,2.7-6.1,6.1v6c0,3.4,2.7,6.1,6.1,6.1s6.1-2.7,6.1-6.1v-6
	C159.3,57.9,156.6,55.2,153.2,55.2z"/>
<path class="st1" d="M144.5,82.8c-2.8-1.8-6.6-1.1-8.4,1.7c0,0-2.7,3.9-6.7,3.9c-3.9,0-6.3-3.5-6.5-3.8c-1.8-2.8-5.5-3.7-8.4-1.9
	c-2.9,1.8-3.7,5.5-2,8.4c2.2,3.5,8.2,9.5,16.8,9.5c8.6,0,14.7-5.9,16.9-9.4C148.1,88.3,147.3,84.6,144.5,82.8z"/>
<path class="st1" d="M114.5,12.6c-7.4,0-14.7,1.1-21.7,3.2c-3.2,1-5,4.4-4,7.6c1,3.2,4.4,5,7.6,4c5.8-1.8,11.9-2.7,18.1-2.7
	c33.6,0,60.9,27,60.9,60.1c0,17.6-7.8,34.3-21.4,45.7c-2.6,2.2-2.9,6-0.7,8.6c1.2,1.4,2.9,2.2,4.7,2.2c1.4,0,2.8-0.5,3.9-1.4
	c16.3-13.8,25.7-33.8,25.7-55.1C187.5,45,154.8,12.6,114.5,12.6z"/>
</svg>
