<?xml version="1.0" standalone="no"?><!DOCTYPE svg PUBLIC "-//W3C//DTD SVG 1.1//EN" "http://www.w3.org/Graphics/SVG/1.1/DTD/svg11.dtd"><svg t="1636872670295" class="icon" viewBox="0 0 1024 1024" version="1.1" xmlns="http://www.w3.org/2000/svg" p-id="1564" xmlns:xlink="http://www.w3.org/1999/xlink" width="200" height="200"><defs><style type="text/css"></style></defs><path d="M98.28 425.07v0.6l0.33-0.6z" fill="#FFFFFF" p-id="1565"></path><path d="M116.7 607.83v11a18.5 18.5 0 1 1-37 0v-11a18.5 18.5 0 1 1 37 0z" fill="#303030" p-id="1566"></path><path d="M744.25 444.17v424.18H116.78v-173.1a18.5 18.5 0 0 0-18.5-18.5v-39.22a18.49 18.49 0 0 0 18.5-18.5V608a18.5 18.5 0 0 0-18.5-18.5v-35.85a18.51 18.51 0 0 0 18.5-18.51v-91h244v164.47h139.47V444.17zM98.61 425.07l-0.33 0.6v-0.6h0.33z" fill="#FFFFFF" p-id="1567"></path><path d="M98.28 425.07v0.6l0.33-0.6z" fill="#303030" p-id="1568"></path><path d="M921.61 189.45v387.61L781.25 818.27v-387.6l140.36-241.22z" fill="#9B9B9B" p-id="1569"></path><path d="M944.92 103a18.25 18.25 0 0 0-8-0.35 16.17 16.17 0 0 0-3.12-0.28H269.29a18.51 18.51 0 0 0-16.14 9.45L84 413.3l-1.87 3.32a18.44 18.44 0 0 0-2.37 9v109.52a18.51 18.51 0 1 0 37 0v-91h627.49v424.21H116.78v-173.1a18.51 18.51 0 0 0-37 0v191.61a18.51 18.51 0 0 0 18.51 18.5h665.47a2.74 2.74 0 0 0 0.5 0 12 12 0 0 0 1.58-0.19l0.44-0.08a0.65 0.65 0 0 0 0.2 0c0.37-0.07 0.74-0.16 1.1-0.26l0.68-0.19c0.18-0.06 0.36-0.11 0.53-0.18s0.41-0.14 0.6-0.22l0.58-0.24c0.3-0.12 0.58-0.24 0.87-0.39s0.7-0.35 1-0.55 0.53-0.31 0.79-0.48a3.28 3.28 0 0 0 0.31-0.2c0.26-0.16 0.52-0.35 0.77-0.54l0.29-0.22a17.22 17.22 0 0 0 1.82-1.6c0.28-0.29 0.56-0.59 0.82-0.9s0.52-0.61 0.77-0.93 0.59-0.81 0.85-1.22a3.34 3.34 0 0 0 0.25-0.4 0.13 0.13 0 0 0 0-0.09l0.13-0.18L956.1 591.35a18.51 18.51 0 0 0 2.51-9.3V120.87A18.51 18.51 0 0 0 944.92 103zM98.28 425.67v-0.6h0.33z m654.19-19.1h-0.22l-0.33 0.6h-622l0.33-0.6 64.94-115.75a18.53 18.53 0 0 0 5.85 0.95H434l20.61-37H215.38l64.75-115.39h622l-64.71 115.38H594.05l-20.6 37h245.82z m169.14 170.49L781.25 818.28V430.67l140.36-241.22z" fill="#303030" p-id="1570"></path><path d="M360.79 444.17h139.47V608.6H360.79zM98.28 425.07v0.6l0.33-0.6z" fill="#FFA766" p-id="1571"></path><path d="M819.27 291.77l-66.79 114.8h-0.23l-0.33 0.6H509.2l0.33-0.6 63.92-114.8h245.82zM434 291.77l-63.92 114.8-0.33 0.6H129.88l0.33-0.6 64.94-115.75a18.53 18.53 0 0 0 5.85 0.95zM518.84 139.37l-64.25 115.39H215.38l64.75-115.39h238.71zM902.17 139.37l-64.75 115.39H594.05l64.25-115.39h243.87z" fill="#FFFFFF" p-id="1572"></path><path d="M658.3 139.37l-64.25 115.39-20.6 37.01-63.92 114.8-0.33 0.6H369.73l0.33-0.6 63.92-114.8 20.61-37.01 64.25-115.39H658.3z" fill="#FFA766" p-id="1573"></path></svg>