<?xml version="1.0" standalone="no"?><!DOCTYPE svg PUBLIC "-//W3C//DTD SVG 1.1//EN" "http://www.w3.org/Graphics/SVG/1.1/DTD/svg11.dtd"><svg t="1636881898050" class="icon" viewBox="0 0 1024 1024" version="1.1" xmlns="http://www.w3.org/2000/svg" p-id="6065" xmlns:xlink="http://www.w3.org/1999/xlink" width="200" height="200"><defs><style type="text/css"></style></defs><path d="M123.4432 388.7616h301.3632a44.1344 44.1344 0 0 0 44.1344-44.1344V217.5488a44.1344 44.1344 0 0 0-44.1344-44.1344H123.4432a44.1344 44.1344 0 0 0-44.1344 44.1344V344.576c0 24.4224 19.7632 44.1856 44.1344 44.1856z" fill="#F9BF34" p-id="6066"></path><path d="M818.1248 552.1408a20.48 20.48 0 0 0-4.5568-2.5088l-14.3872-5.632a19.88608 19.88608 0 0 1-12.6464-18.5344V437.8624c0-3.0208 0.6656-5.9904 1.9968-8.704l13.6192-28.1088c1.9456-4.0448 5.1712-7.3216 9.2672-9.216 26.0096-12.0832 44.0832-38.4 44.0832-68.9664 0-42.0352-34.0992-76.1344-76.1344-76.1344-2.56 0-5.0688 0.1536-7.5776 0.4096V199.168c0-7.8848 4.864-14.6432 11.9296-18.176 4.0448-1.9968 6.8096-4.8128 7.8336-8.2944 3.7888-12.5952-15.9744-29.6448-44.0832-38.0928-28.1088-8.448-53.9648-5.0688-57.7536 7.5264-3.7888 12.5952 15.9744 29.6448 44.0832 38.0928 2.304 0.6656 4.5568 1.28 6.8608 1.792v46.592c0 11.008-8.9088 19.9168-19.9168 19.9168H609.28c-11.008 0-19.9168 8.9088-19.9168 19.9168v26.4192c0 11.008 8.9088 19.9168 19.9168 19.9168h15.104c11.008 0 19.968 8.96 19.9168 19.968l-0.3072 93.4912c0 3.328-0.8704 6.6048-2.4576 9.5232l-84.8384 154.88a19.85024 19.85024 0 0 1-17.4592 10.3424H434.6368c-15.9744 0-25.4464-17.8688-16.4864-31.0784l51.6608-76.288c2.2528-3.2768 3.4304-7.168 3.4304-11.1616v-31.1808c0-11.008-8.9088-19.9168-19.9168-19.9168H100.4032c-11.008 0-19.9168 8.9088-19.9168 19.9168v17.408c0 11.008 8.9088 19.9168 19.9168 19.9168 15.616 0 25.1392 17.1008 16.9472 30.3616l-50.2272 81.3056c-0.3072 0.512-0.6144 0.9728-0.9728 1.4336l-25.856 34.6624a19.968 19.968 0 0 0-3.9424 11.9296v86.1696c0 8.7552 5.7344 16.128 13.568 18.7904 15.3088 78.2848 84.2752 137.4208 167.0144 137.4208 82.3808 0 151.0912-58.5216 166.8096-136.2944h266.8544c15.7184 77.7216 84.4288 136.2944 166.8096 136.2944 94.0032 0 170.24-76.2368 170.24-170.24 0.0512-93.8496-75.8272-169.8816-169.5232-170.2912z" fill="#F49D22" p-id="6067"></path><path d="M871.936 561.1008c-16.896-5.6832-34.9696-8.8576-53.76-8.96a20.48 20.48 0 0 0-4.5568-2.5088l-14.3872-5.632a19.88608 19.88608 0 0 1-12.6464-18.5344V437.8624c0-3.0208 0.6656-5.9904 1.9968-8.704l13.6192-28.1088c1.9456-4.0448 5.1712-7.3216 9.2672-9.216 26.0096-12.0832 44.0832-38.4 44.0832-68.9664 0-42.0352-34.0992-76.1344-76.1344-76.1344-2.56 0-5.0688 0.1536-7.5776 0.4096V199.168c0-7.8848 4.864-14.6432 11.9296-18.176 4.0448-1.9968 6.8096-4.8128 7.8336-8.2944 3.7888-12.5952-15.9744-29.6448-44.0832-38.0928-28.1088-8.448-53.9648-5.0688-57.7536 7.5264-3.7888 12.5952 15.9744 29.6448 44.0832 38.0928 2.304 0.6656 4.5568 1.28 6.8608 1.792v46.592c0 11.008-8.9088 19.9168-19.9168 19.9168h-111.4624c-11.008 0-19.9168 8.9088-19.9168 19.9168v26.4192c0 11.008 8.9088 19.9168 19.9168 19.9168h15.104c11.008 0 19.968 8.96 19.9168 19.968l-0.3072 93.4912c0 3.328-0.8704 6.6048-2.4576 9.5232l-84.8384 154.88a19.85024 19.85024 0 0 1-17.4592 10.3424H434.6368c-15.9744 0-25.4464-17.8688-16.4864-31.0784l51.6608-76.288c2.2528-3.2768 3.4304-7.168 3.4304-11.1616v-31.1808c0-11.008-8.9088-19.9168-19.9168-19.9168H100.4032c-11.008 0-19.9168 8.9088-19.9168 19.9168v17.408c0 11.008 8.9088 19.9168 19.9168 19.9168 15.616 0 25.1392 17.1008 16.9472 30.3616l-50.2272 81.3056c-0.3072 0.512-0.6144 0.9728-0.9728 1.4336l-25.856 34.6624a19.968 19.968 0 0 0-3.9424 11.9296v86.1696c0 8.7552 5.7344 16.128 13.568 18.7904 15.3088 78.2848 84.2752 137.4208 167.0144 137.4208 82.3808 0 151.0912-58.5216 166.8096-136.2944h266.8544a167.6288 167.6288 0 0 0 14.1312 41.3184c84.1216-63.2832 155.0336-143.7184 207.2064-236.5952z" fill="#F6AD2A" p-id="6068"></path><path d="M434.6368 602.9312c-15.9744 0-25.4464-17.8688-16.4864-31.0784l51.6608-76.288c2.2528-3.2768 3.4304-7.168 3.4304-11.1616v-31.1808c0-11.008-8.9088-19.9168-19.9168-19.9168H100.4032c-11.008 0-19.9168 8.9088-19.9168 19.9168v17.408c0 11.008 8.9088 19.9168 19.9168 19.9168 15.616 0 25.1392 17.1008 16.9472 30.3616l-50.2272 81.3056c-0.3072 0.512-0.6144 0.9728-0.9728 1.4336l-25.856 34.6624A19.968 19.968 0 0 0 36.352 650.24v86.1696c0 2.7648 0.6144 5.376 1.6384 7.7312 162.816-0.1536 315.392-52.0704 440.5248-141.2096h-43.8784zM641.5872 437.76l-14.1312 25.8048c72.8064-89.1392 126.0544-195.3792 152.6272-312.6784-7.936-6.4512-19.3024-12.3392-32.512-16.2816-28.1088-8.448-53.9648-5.0688-57.7536 7.5264-3.7888 12.5952 15.9744 29.6448 44.0832 38.0928 2.304 0.6656 4.5568 1.28 6.8608 1.792v46.592c0 11.008-8.9088 19.9168-19.9168 19.9168h-111.4624c-11.008 0-19.9168 8.9088-19.9168 19.9168v26.4192c0 11.008 8.9088 19.9168 19.9168 19.9168h15.104c11.008 0 19.968 8.96 19.9168 19.968l-0.3072 93.4912a20.6336 20.6336 0 0 1-2.5088 9.5232z" fill="#F9BF34" p-id="6069"></path><path d="M100.4032 433.3056c-11.008 0-19.9168 8.9088-19.9168 19.9168v17.408c0 11.008 8.9088 19.9168 19.9168 19.9168 5.7856 0 10.7008 2.3552 14.2336 5.9392a747.52 747.52 0 0 0 131.7376-63.1808H100.4032zM468.9408 217.5488a44.1344 44.1344 0 0 0-44.1344-44.1344H123.4432a44.1344 44.1344 0 0 0-44.1344 44.1344V344.576a44.1344 44.1344 0 0 0 44.1344 44.1344h188.3136c60.0576-45.6704 113.152-100.3008 157.184-162.048v-9.1136z" fill="#FAC93A" p-id="6070"></path><path d="M376.7808 282.112H170.7008c-13.4144 0-24.2688-10.8544-24.2688-24.2688s10.8544-24.2688 24.2688-24.2688h206.08c13.4144 0 24.2688 10.8544 24.2688 24.2688s-10.8544 24.2688-24.2688 24.2688zM216.9344 827.7504c-58.112 0-105.3696-47.2576-105.3696-105.3696 0-58.112 47.2576-105.3696 105.3696-105.3696s105.3696 47.2576 105.3696 105.3696c0 58.112-47.2576 105.3696-105.3696 105.3696z m0-162.2016c-31.3344 0-56.832 25.4976-56.832 56.832 0 31.3344 25.4976 56.7808 56.832 56.7808s56.7808-25.4976 56.7808-56.7808c0.0512-31.3344-25.4464-56.832-56.7808-56.832z" fill="#FFFFFF" p-id="6071"></path><path d="M817.4592 827.7504c-58.112 0-105.3696-47.2576-105.3696-105.3696 0-58.112 47.2576-105.3696 105.3696-105.3696s105.3696 47.2576 105.3696 105.3696c0 58.112-47.2576 105.3696-105.3696 105.3696z m0-162.2016c-31.3344 0-56.7808 25.4976-56.7808 56.832 0 31.3344 25.4976 56.7808 56.7808 56.7808 31.3344 0 56.7808-25.4976 56.7808-56.7808 0-31.3344-25.4464-56.832-56.7808-56.832z" fill="#FFFFFF" p-id="6072"></path></svg>