<?xml version="1.0" standalone="no"?><!DOCTYPE svg PUBLIC "-//W3C//DTD SVG 1.1//EN" "http://www.w3.org/Graphics/SVG/1.1/DTD/svg11.dtd"><svg t="1636882141158" class="icon" viewBox="0 0 1042 1024" version="1.1" xmlns="http://www.w3.org/2000/svg" p-id="4718" xmlns:xlink="http://www.w3.org/1999/xlink" width="203.515625" height="200"><defs><style type="text/css"></style></defs><path d="M0 852.013029h1042.345277v171.986971H0z" fill="#F8C44F" p-id="4719"></path><path d="M52.117264 852.013029h41.693811v82.657981H52.117264zM125.081433 852.013029h41.693811v44.508144h-41.693811zM198.045603 852.013029h41.693811v82.657981h-41.693811zM271.009772 852.013029h41.693811v44.508144h-41.693811zM343.973941 852.013029h41.693811v82.657981h-41.693811zM416.938111 852.013029h41.693811v44.508144h-41.693811zM489.90228 852.013029h41.693811v82.657981h-41.693811zM562.86645 852.013029h41.693811v44.508144h-41.693811zM635.830619 852.013029h41.693811v82.657981h-41.693811zM708.794788 852.013029h41.693811v44.508144h-41.693811zM781.758958 852.013029h41.693811v82.657981h-41.693811zM854.723127 852.013029h41.693811v44.508144h-41.693811zM927.687296 852.013029h41.693811v82.657981h-41.693811z" fill="#282D33" p-id="4720"></path><path d="M23.035831 20.846906m9.068404 0l549.107491 0q9.068404 0 9.068404 9.068403l0 698.579805q0 9.068404-9.068404 9.068404l-549.107491 0q-9.068404 0-9.068404-9.068404l0-698.579805q0-9.068404 9.068404-9.068403Z" fill="#FFFFFF" p-id="4721"></path><path d="M581.315961 758.410423H32.104235a30.019544 30.019544 0 0 1-29.91531-29.915309v-698.371335A30.019544 30.019544 0 0 1 32.104235 0h549.211726a29.915309 29.915309 0 0 1 29.811075 29.915309v698.371336a29.915309 29.915309 0 0 1-29.811075 30.123778z m-537.433225-41.693811h525.550489V41.693811H43.882736z" fill="#282D33" p-id="4722"></path><path d="M302.905537 445.081433h208.990228v208.990228H302.905537z" fill="#F8C44F" p-id="4723"></path><path d="M460.508143 578.710098z" fill="#FFFFFF" p-id="4724"></path><path d="M354.397394 557.863192h106.214984v41.693811H354.397394z" fill="#282D33" p-id="4725"></path><path d="M460.508143 520.547231z" fill="#FFFFFF" p-id="4726"></path><path d="M354.397394 499.700326h106.214984v41.693811H354.397394z" fill="#282D33" p-id="4727"></path><path d="M532.846906 675.439739H80.364821V222.957655h452.482085z m-410.788274-41.693811h369.094462V264.651466H122.058632z" fill="#282D33" p-id="4728"></path><path d="M84.846906 89.224756h443.726384v99.335505H84.846906z" fill="#34CA9D" p-id="4729"></path><path d="M532.846906 675.439739H80.364821V222.957655h452.482085z m-410.788274-41.693811h369.094462V264.651466H122.058632z" fill="#282D33" p-id="4730"></path><path d="M307.596091 243.80456z" fill="#FFFFFF" p-id="4731"></path><path d="M286.749186 243.80456h41.693811V652.508143h-41.693811z" fill="#282D33" p-id="4732"></path><path d="M512 448.208469z" fill="#FFFFFF" p-id="4733"></path><path d="M103.192182 427.361564h408.703583v41.693811H103.192182z" fill="#282D33" p-id="4734"></path><path d="M254.540717 347.413681z" fill="#FFFFFF" p-id="4735"></path><path d="M148.325733 326.566775h106.214984v41.693811H148.325733z" fill="#282D33" p-id="4736"></path><path d="M201.381107 400.469055z" fill="#FFFFFF" p-id="4737"></path><path d="M180.534202 294.254072h41.693811v106.110749h-41.693811z" fill="#282D33" p-id="4738"></path><path d="M464.156352 347.413681z" fill="#FFFFFF" p-id="4739"></path><path d="M358.045603 326.566775h106.110749v41.693811H358.045603z" fill="#282D33" p-id="4740"></path><path d="M239.009772 591.947883l-75.153094-75.04886z" fill="#FFFFFF" p-id="4741"></path><path d="M149.076221 531.575244l29.477525-29.487948 75.111401 75.111401-29.487948 29.477524z" fill="#282D33" p-id="4742"></path><path d="M163.856678 591.947883l75.153094-75.04886z" fill="#FFFFFF" p-id="4743"></path><path d="M149.149186 577.198697l75.028013-75.038436 29.487948 29.487947-75.038437 75.028013zM951.140065 737.980456L826.892508 308.95114 702.644951 737.980456l-40.026058-11.570033 164.273615-567.348534 164.273616 567.348534-40.026059 11.570033z" fill="#282D33" p-id="4744"></path><path d="M826.892508 262.462541A84.95114 84.95114 0 1 1 911.843648 177.198697a84.95114 84.95114 0 0 1-84.95114 85.263844z m0-128.208469A43.257329 43.257329 0 1 0 870.149837 177.198697a43.257329 43.257329 0 0 0-43.257329-42.944625z" fill="#282D33" p-id="4745"></path><path d="M806.045603 7.713355h41.693811v98.084691h-41.693811zM826.892508 526.801303a370.553746 370.553746 0 0 1-158.749186-35.752443l17.824105-37.628665a329.485342 329.485342 0 0 0 281.433224 0l17.824105 37.628665a370.970684 370.970684 0 0 1-158.332248 35.752443z" fill="#282D33" p-id="4746"></path></svg>